<svg id="Layer_1" data-name="Layer 1" xmlns="http://www.w3.org/2000/svg" viewBox="0 0 12 16"><title>lightbulb_off</title><path d="M2,6a6,6,0,1,1,10.17,4.31,2,2,0,0,0-.45.62L11,12.7a.51.51,0,0,1-.46.3.5.5,0,0,1,0,1,.5.5,0,0,1,0,1l-.22.45a1,1,0,0,1-.9.55H6.62a1,1,0,0,1-.9-.55L5.5,15a.5.5,0,0,1,0-1,.5.5,0,0,1,0-1A.51.51,0,0,1,5,12.7l-.76-1.77a1.87,1.87,0,0,0-.45-.62A6,6,0,0,1,2,6ZM8,1A5,5,0,0,0,4.52,9.59a3.29,3.29,0,0,1,.68.94L5.83,12h4.34l.63-1.47a3.29,3.29,0,0,1,.68-.94A5,5,0,0,0,8,1Z" transform="translate(-2 0)"/></svg>